<?xml version="1.0" encoding="UTF-8"?>
<!DOCTYPE svg PUBLIC "-//W3C//DTD SVG 1.1//EN" "http://www.w3.org/Graphics/SVG/1.1/DTD/svg11.dtd">
<svg xmlns="http://www.w3.org/2000/svg" version="1.1" width="110px" height="108px" style="shape-rendering:geometricPrecision; text-rendering:geometricPrecision; image-rendering:optimizeQuality; fill-rule:evenodd; clip-rule:evenodd" xmlns:xlink="http://www.w3.org/1999/xlink">
<g><path style="opacity:0.911" fill="#4787b9" d="M 32.5,-0.5 C 38.8333,-0.5 45.1667,-0.5 51.5,-0.5C 48.8231,1.84508 46.4897,4.51175 44.5,7.5C 41.6629,4.8987 38.8295,4.8987 36,7.5C 35.0444,10.9222 36.2111,13.2555 39.5,14.5C 36.397,16.6824 33.7303,19.3491 31.5,22.5C 30.1667,22.5 28.8333,22.5 27.5,22.5C 27.2614,16.4348 27.7614,10.4348 29,4.5C 29.9973,2.67694 31.1639,1.01027 32.5,-0.5 Z"/></g>
<g><path style="opacity:0.955" fill="#4280b1" d="M 51.5,-0.5 C 55.5,-0.5 59.5,-0.5 63.5,-0.5C 57.1253,6.87458 51.1253,14.5412 45.5,22.5C 40.8333,22.5 36.1667,22.5 31.5,22.5C 33.7303,19.3491 36.397,16.6824 39.5,14.5C 43.3522,13.8126 45.0189,11.4792 44.5,7.5C 46.4897,4.51175 48.8231,1.84508 51.5,-0.5 Z"/></g>
<g><path style="opacity:0.987" fill="#3a76a7" d="M 63.5,-0.5 C 67.5,-0.5 71.5,-0.5 75.5,-0.5C 77.1392,0.472504 78.4726,1.80584 79.5,3.5C 76.7674,6.37763 73.4341,9.5443 69.5,13C 69.5,14 69.5,15 69.5,16C 65.9118,18.9194 62.2452,22.5861 58.5,27C 58.8333,27.3333 59.1667,27.6667 59.5,28C 58.1667,28.3333 56.8333,28.6667 55.5,29C 56.6405,29.7412 56.6405,30.5745 55.5,31.5C 51.9166,35.2733 48.5833,38.44 45.5,41C 45.5,42 45.5,43 45.5,44C 44.5,44.3333 43.5,44.6667 42.5,45C 42.8333,45.3333 43.1667,45.6667 43.5,46C 41.2853,47.3792 39.6187,49.2125 38.5,51.5C 33.3701,52.7915 29.5368,55.7915 27,60.5C 25.6226,67.0764 25.1226,73.7431 25.5,80.5C 21.4862,80.6655 17.4862,80.4988 13.5,80C 11.3474,79.9005 9.68076,79.0672 8.5,77.5C 22.9986,60.4988 37.3319,43.3321 51.5,26C 50.5842,25.7216 49.9175,25.2216 49.5,24.5C 51.288,24.7852 52.9547,24.4519 54.5,23.5C 51.5719,22.5159 48.5719,22.1826 45.5,22.5C 51.1253,14.5412 57.1253,6.87458 63.5,-0.5 Z"/></g>
<g><path style="opacity:0.962" fill="#356f9f" d="M 79.5,3.5 C 80.793,4.84203 81.6264,6.50869 82,8.5C 82.4983,11.8168 82.665,15.1501 82.5,18.5C 81.7784,18.0825 81.2784,17.4158 81,16.5C 72.6797,26.3835 64.1797,36.7168 55.5,47.5C 53.4431,49.5093 51.1098,50.8426 48.5,51.5C 45.1667,51.5 41.8333,51.5 38.5,51.5C 39.6187,49.2125 41.2853,47.3792 43.5,46C 43.1667,45.6667 42.8333,45.3333 42.5,45C 43.5,44.6667 44.5,44.3333 45.5,44C 45.5,43 45.5,42 45.5,41C 48.5833,38.44 51.9166,35.2733 55.5,31.5C 56.6405,30.5745 56.6405,29.7412 55.5,29C 56.8333,28.6667 58.1667,28.3333 59.5,28C 59.1667,27.6667 58.8333,27.3333 58.5,27C 62.2452,22.5861 65.9118,18.9194 69.5,16C 69.5,15 69.5,14 69.5,13C 73.4341,9.5443 76.7674,6.37763 79.5,3.5 Z"/></g>
<g><path style="opacity:0.937" fill="#306998" d="M 82.5,18.5 C 87.6594,46.3396 76.3261,57.3396 48.5,51.5C 51.1098,50.8426 53.4431,49.5093 55.5,47.5C 64.1797,36.7168 72.6797,26.3835 81,16.5C 81.2784,17.4158 81.7784,18.0825 82.5,18.5 Z"/></g>
<g><path style="opacity:0.981" fill="#4787b9" d="M 27.5,24.5 C 27.9175,25.2216 28.5842,25.7216 29.5,26C 20.0098,36.3257 10.6764,46.8257 1.5,57.5C 1.21236,58.8605 0.879028,60.1938 0.5,61.5C 0.166667,61.5 -0.166667,61.5 -0.5,61.5C -0.5,55.5 -0.5,49.5 -0.5,43.5C 2.45793,28.3222 11.7913,21.9888 27.5,24.5 Z"/></g>
<g><path style="opacity:0.976" fill="#4280b1" d="M 27.5,24.5 C 31.5,24.5 35.5,24.5 39.5,24.5C 39.9175,25.2216 40.5842,25.7216 41.5,26C 38.1497,28.1783 36.1497,30.8449 35.5,34C 27.8333,42.3333 20.1667,50.6667 12.5,59C 12.8333,59.3333 13.1667,59.6667 13.5,60C 9.63489,63.3668 5.96822,66.8668 2.5,70.5C 1.07209,67.6967 0.405423,64.6967 0.5,61.5C 0.879028,60.1938 1.21236,58.8605 1.5,57.5C 10.6764,46.8257 20.0098,36.3257 29.5,26C 28.5842,25.7216 27.9175,25.2216 27.5,24.5 Z"/></g>
<g><path style="opacity:0.985" fill="#3d7aab" d="M 39.5,24.5 C 42.8333,24.5 46.1667,24.5 49.5,24.5C 49.9175,25.2216 50.5842,25.7216 51.5,26C 37.3319,43.3321 22.9986,60.4988 8.5,77.5C 5.34814,76.2209 3.34814,73.8875 2.5,70.5C 5.96822,66.8668 9.63489,63.3668 13.5,60C 13.1667,59.6667 12.8333,59.3333 12.5,59C 20.1667,50.6667 27.8333,42.3333 35.5,34C 36.1497,30.8449 38.1497,28.1783 41.5,26C 40.5842,25.7216 39.9175,25.2216 39.5,24.5 Z"/></g>
<g><path style="opacity:0.99" fill="#ffe771" d="M 103.5,28.5 C 102.934,30.0783 101.934,31.4116 100.5,32.5C 94.8152,36.5251 89.1486,40.5251 83.5,44.5C 84.4226,37.891 84.7559,31.2244 84.5,24.5C 89.1785,24.3342 93.8452,24.5008 98.5,25C 100.881,25.2233 102.547,26.39 103.5,28.5 Z"/></g>
<g><path style="opacity:0.97" fill="#fee366" d="M 103.5,28.5 C 105.822,29.8021 107.155,31.8021 107.5,34.5C 80.3329,52.3144 53.6663,70.981 27.5,90.5C 27.5,88.5 27.5,86.5 27.5,84.5C 41.5546,74.1634 55.5546,63.8301 69.5,53.5C 75.7842,52.8604 80.4508,49.8604 83.5,44.5C 89.1486,40.5251 94.8152,36.5251 100.5,32.5C 101.934,31.4116 102.934,30.0783 103.5,28.5 Z"/></g>
<g><path style="opacity:0.995" fill="#ffe160" d="M 107.5,34.5 C 108.167,35.5 108.833,36.5 109.5,37.5C 109.5,37.8333 109.5,38.1667 109.5,38.5C 105.183,39.9616 101.183,42.1282 97.5,45C 74.5527,62.1248 51.2194,78.6248 27.5,94.5C 27.5,93.1667 27.5,91.8333 27.5,90.5C 53.6663,70.981 80.3329,52.3144 107.5,34.5 Z"/></g>
<g><path style="opacity:0.986" fill="#ffde59" d="M 109.5,38.5 C 109.5,39.8333 109.5,41.1667 109.5,42.5C 93.2087,53.7742 76.8753,65.1075 60.5,76.5C 59.0656,77.5884 58.0656,78.9217 57.5,80.5C 54.8333,81.1667 54.8333,81.8333 57.5,82.5C 56.9344,84.0783 55.9344,85.4116 54.5,86.5C 46.7549,91.3623 39.4215,96.6956 32.5,102.5C 29.8342,100.511 28.1675,97.844 27.5,94.5C 51.2194,78.6248 74.5527,62.1248 97.5,45C 101.183,42.1282 105.183,39.9616 109.5,38.5 Z"/></g>
<g><path style="opacity:0.985" fill="#ffdc52" d="M 109.5,42.5 C 109.5,45.8333 109.5,49.1667 109.5,52.5C 96.7854,61.8483 84.1187,71.1816 71.5,80.5C 66.8333,80.5 62.1667,80.5 57.5,80.5C 58.0656,78.9217 59.0656,77.5884 60.5,76.5C 76.8753,65.1075 93.2087,53.7742 109.5,42.5 Z"/></g>
<g><path style="opacity:0.979" fill="#ffe771" d="M 69.5,53.5 C 55.5546,63.8301 41.5546,74.1634 27.5,84.5C 27.1439,76.7618 27.6439,69.0952 29,61.5C 31.1667,59.3333 33.3333,57.1667 35.5,55C 46.7702,53.5907 58.1035,53.0907 69.5,53.5 Z"/></g>
<g><path style="opacity:0.963" fill="#ffd641" d="M 109.5,52.5 C 109.5,57.5 109.5,62.5 109.5,67.5C 107.506,71.6845 104.839,75.5179 101.5,79C 91.5657,80.3952 81.5657,80.8952 71.5,80.5C 84.1187,71.1816 96.7854,61.8483 109.5,52.5 Z"/></g>
<g><path style="opacity:0.97" fill="#ffd949" d="M 57.5,82.5 C 62.1667,82.5 66.8333,82.5 71.5,82.5C 71.9175,83.2216 72.5842,83.7216 73.5,84C 62.6013,91.7466 51.6013,99.2466 40.5,106.5C 37.2459,106.206 34.5792,104.873 32.5,102.5C 39.4215,96.6956 46.7549,91.3623 54.5,86.5C 55.9344,85.4116 56.9344,84.0783 57.5,82.5 Z"/></g>
<g><path style="opacity:0.947" fill="#ffd43d" d="M 71.5,82.5 C 75.1667,82.5 78.8333,82.5 82.5,82.5C 85.6449,94.5387 81.6449,102.872 70.5,107.5C 60.5,107.5 50.5,107.5 40.5,107.5C 40.5,107.167 40.5,106.833 40.5,106.5C 51.6013,99.2466 62.6013,91.7466 73.5,84C 72.5842,83.7216 71.9175,83.2216 71.5,82.5 Z M 68.5,90.5 C 73.1725,90.4882 75.0058,92.8215 74,97.5C 71.3333,100.167 68.6667,100.167 66,97.5C 65.162,94.5193 65.9953,92.1859 68.5,90.5 Z"/></g>
</svg>
